<?xml version="1.0" encoding="utf-8"?>
<!-- Svg Vector Icons : http://www.onlinewebfonts.com/icon -->
<!DOCTYPE svg PUBLIC "-//W3C//DTD SVG 1.1//EN" "http://www.w3.org/Graphics/SVG/1.1/DTD/svg11.dtd">
<svg version="1.1" xmlns="http://www.w3.org/2000/svg" xmlns:xlink="http://www.w3.org/1999/xlink" x="0px" y="0px" viewBox="0 0 256 256" enable-background="new 0 0 256 256" xml:space="preserve">
<metadata> Svg Vector Icons : http://www.onlinewebfonts.com/icon </metadata>
<g><g><g><path fill="#000000" d="M116.3,62c-0.7,0.1-3.4,0.4-5.8,0.7C95.7,64.4,79,69.6,64.7,76.8c-21.5,10.9-40.1,27.7-52.2,47.1l-2.5,4l2.5,3.9c5.7,9.1,12.7,17.4,21.7,25.9c17.8,16.7,42.1,29,66.7,33.8c17.6,3.4,36.7,3.4,54.3,0c21.9-4.3,44.2-14.8,61.1-28.8c5-4.2,13.8-13,18-18.1c3.7-4.4,11.7-15.9,11.7-16.7c0-0.7-7.1-10.9-10.5-15.3c-1.9-2.4-6.3-7.2-9.8-10.6c-20.9-20.8-47.7-34.3-77.5-38.9c-4.7-0.7-8.7-1-18.3-1.1C123.1,61.9,117,61.9,116.3,62z M142.8,71.7C179.5,76,211,94.4,232.5,124c1.3,1.8,2.4,3.6,2.4,3.9c0,0.3-1.2,2.2-2.6,4.2c-18.2,25.8-45.4,43.5-77.2,50.1c-9.6,1.9-14.1,2.4-27.1,2.4c-13,0-17.4-0.4-27.1-2.4c-24.9-5.2-46.8-16.9-64.2-34.5c-6.3-6.4-15.6-18.2-15.6-19.8c0-1.7,9.7-13.8,16.1-20.3C58.2,86.8,85.2,74.3,116,71.3C120.8,70.8,137.7,71,142.8,71.7z"/><path fill="#000000" d="M121.1,91.1c-11.9,2.5-21.8,10.4-27,21.6c-2.6,5.4-3.3,8.7-3.3,15.2c0,6.6,0.7,9.8,3.3,15.2c6.6,14.1,21.1,23,35.8,22.1c5.6-0.4,8.8-1.3,14.1-3.8c9.8-4.7,17.5-14.2,20.4-24.7c1.1-4.2,1.1-13.4,0-17.6c-3.6-13.1-14.4-24.1-27.4-27.5C133.2,90.5,124.9,90.3,121.1,91.1z M137.3,101.1c6.8,2.2,13.1,7.6,16.2,14.1c4.7,10,3.3,22.5-3.6,30.9c-7.7,9.6-22.9,12.7-34.6,7.2c-6.4-3.1-11.9-9.3-14.1-16.2c-1-3-1.2-4.3-1.1-9.3c0-5.1,0.1-6.2,1.3-9.5c2.1-6.1,5.3-10.5,10.1-13.7c3.1-2.2,4.9-2.9,9.3-4.1C125.4,99.3,132.5,99.5,137.3,101.1z"/></g></g></g>
</svg>