<?xml version="1.0" encoding="utf-8"?>
<!-- Svg Vector Icons : http://www.onlinewebfonts.com/icon -->
<!DOCTYPE svg PUBLIC "-//W3C//DTD SVG 1.1//EN" "http://www.w3.org/Graphics/SVG/1.1/DTD/svg11.dtd">
<svg version="1.1" xmlns="http://www.w3.org/2000/svg" xmlns:xlink="http://www.w3.org/1999/xlink" x="0px" y="0px" viewBox="0 0 256 256" enable-background="new 0 0 256 256" xml:space="preserve">
<metadata> Svg Vector Icons : http://www.onlinewebfonts.com/icon </metadata>
<g><g><g><path fill="#000000" d="M192.1,58.6l-17.8,17.8l-5.4-1.6c-6.5-1.9-14.9-3.6-22.8-4.7c-8.2-1.1-28-1.1-36.1,0c-26.1,3.6-48,12.2-69.1,27.2c-10.4,7.4-21.6,17.7-28.1,25.8c-3.6,4.5-3.6,5.3-0.7,8.9C23,145.5,39,158.7,55.6,168c5.3,2.9,14.5,7.4,17,8.1c0.6,0.2,1,0.5,1,0.6s-7.4,7.7-16.4,16.7c-9,9-16.4,16.6-16.4,16.8c0,0.6,4.2,4.8,4.8,4.8c0.3,0,8.5-8,18.3-17.8l17.8-17.8l2.9,0.9c7.3,2.4,15.4,4.1,25.3,5.5c8.1,1.1,27.8,1.1,36.2,0c19.9-2.7,37.2-8.4,54-17.8c16.8-9.4,32.7-22.6,43.7-36.1c1.5-1.8,2.2-3.1,2.2-4c0-0.9-0.7-2.2-2.2-4c-10.9-13.5-26.9-26.7-43.5-36c-5.3-2.9-14.5-7.4-16.9-8.1c-0.6-0.2-1.1-0.5-1.1-0.6c0-0.2,7.4-7.7,16.4-16.7c9-9,16.4-16.6,16.4-16.7c0-0.4-4.4-4.6-5-4.8C209.9,40.9,201.8,48.8,192.1,58.6z M139.3,76.8c3,0.3,8.1,0.9,11.3,1.4c6,1,16.6,3.5,17.2,4.1c0.2,0.1-4.6,5.3-10.6,11.3l-11,11l-3.2-1.9c-11.5-6.9-26.1-5.1-35.7,4.5c-9.7,9.7-11.4,24.5-4.3,36.1l1.7,2.7l-12.4,12.4l-12.4,12.4l-3.7-1.4c-19-7.6-40.6-22.5-53.9-37.3c-1.9-2.1-3.5-4-3.5-4.2c0-0.8,7.3-8.6,12.4-13.1C62.4,86.9,100.5,73.5,139.3,76.8z M183.3,87.9c12.6,5.3,26.3,14,38,23.8c4.5,3.8,14.1,13.3,15.3,15.1c0.9,1.5,0.7,1.8-5.9,8.5c-23.8,23.9-53.4,38.9-85.5,43.2c-8.3,1.2-26.8,1.2-34.8,0c-6.7-0.9-14.6-2.6-19.4-4l-3.4-1l11.1-11.1l11.1-11.1l2.7,1.7c11.6,7.1,26.4,5.4,36.1-4.3c9.7-9.7,11.5-24.5,4.3-36.1l-1.7-2.7l12.4-12.4c10.1-10.1,12.5-12.4,13.3-12.1C177.6,85.5,180.4,86.7,183.3,87.9z M133.2,106.5c2.8,0.7,7.2,2.8,7.2,3.4c0,0.4-30.1,30.5-30.5,30.5c-0.6,0-2.6-4.4-3.4-7.2C102.4,117.5,117.5,102.4,133.2,106.5z M147.6,117.8c2.5,4.9,3.1,10.4,1.8,15.4c-3.1,11.8-15.2,19.1-26.7,16.1c-2.8-0.7-7.2-2.8-7.2-3.4c0-0.4,30.1-30.5,30.5-30.5C146.2,115.5,146.9,116.5,147.6,117.8z"/></g></g></g>
</svg>